<?xml version="1.0" encoding="utf-8"?>
<!-- Generator: Adobe Illustrator 28.0.0, SVG Export Plug-In . SVG Version: 6.00 Build 0)  -->
<svg version="1.1" id="图层_1" xmlns="http://www.w3.org/2000/svg" xmlns:xlink="http://www.w3.org/1999/xlink" x="0px" y="0px"
	 viewBox="0 0 217.23 63" style="enable-background:new 0 0 217.23 63;" xml:space="preserve">
<style type="text/css">
	.st0{fill:#30A1D2;}
	.st1{font-family:'MicrosoftYaHeiUI';}
	.st2{font-size:60px;}
	.st3{fill:url(#SVGID_1_);}
	.st4{fill:url(#SVGID_00000089545505254138766590000001348698753668865167_);}
	.st5{fill:url(#SVGID_00000085973110691896677420000004848514226898767012_);}
	.st6{fill:url(#SVGID_00000132767760582616362870000004549650724913759143_);}
	.st7{fill:#F4F1B3;stroke:#040000;stroke-miterlimit:10;}
</style>
<g>
	<text transform="matrix(0.9659 0 0 1 51.5194 52.8604)" class="st0 st1 st2">NHCE</text>
	<g>
		<linearGradient id="SVGID_1_" gradientUnits="userSpaceOnUse" x1="57.1786" y1="30.1699" x2="211.4569" y2="30.1699">
			<stop  offset="0" style="stop-color:#94C640"/>
			<stop  offset="0.5112" style="stop-color:#24257A"/>
			<stop  offset="1" style="stop-color:#F09931"/>
		</linearGradient>
		<path class="st3" d="M92.98,52.86h-6.71l-22.04-35.3c-0.62-1-1.12-1.98-1.5-2.96h-0.17c0.15,1.02,0.23,3.13,0.23,6.36v31.9h-5.6
			V7.48h7.1l21.45,34.69c1.02,1.64,1.62,2.69,1.81,3.13h0.11c-0.19-1.29-0.28-3.5-0.28-6.62V7.48h5.6V52.86z"/>
		
			<linearGradient id="SVGID_00000121239288788816073180000005522075281056800908_" gradientUnits="userSpaceOnUse" x1="57.1786" y1="30.1699" x2="211.4569" y2="30.1699">
			<stop  offset="0" style="stop-color:#94C640"/>
			<stop  offset="0.5112" style="stop-color:#24257A"/>
			<stop  offset="1" style="stop-color:#F09931"/>
		</linearGradient>
		<path style="fill:url(#SVGID_00000121239288788816073180000005522075281056800908_);" d="M137.8,52.86h-5.66V32.41h-22.18v20.45
			h-5.66V7.48h5.66V27.2h22.18V7.48h5.66V52.86z"/>
		
			<linearGradient id="SVGID_00000018919546111457300260000009916043944425292672_" gradientUnits="userSpaceOnUse" x1="57.1786" y1="30.1699" x2="211.4569" y2="30.1699">
			<stop  offset="0" style="stop-color:#94C640"/>
			<stop  offset="0.5112" style="stop-color:#24257A"/>
			<stop  offset="1" style="stop-color:#F09931"/>
		</linearGradient>
		<path style="fill:url(#SVGID_00000018919546111457300260000009916043944425292672_);" d="M179.11,50.99
			c-3.23,1.76-7.27,2.64-12.14,2.64c-6.28,0-11.3-2.07-15.05-6.2s-5.63-9.59-5.63-16.39c0-7.3,2.11-13.18,6.34-17.64
			s9.59-6.68,16.1-6.68c4.19,0,7.65,0.62,10.39,1.85v6.12c-3.13-1.8-6.58-2.7-10.33-2.7c-4.89,0-8.87,1.68-11.94,5.05
			c-3.08,3.37-4.61,7.92-4.61,13.64c0,5.43,1.43,9.74,4.3,12.93s6.62,4.79,11.26,4.79c4.34,0,8.11-1.02,11.32-3.05V50.99z"/>
		
			<linearGradient id="SVGID_00000129926124706337641780000002792338355414699453_" gradientUnits="userSpaceOnUse" x1="57.1786" y1="30.1699" x2="211.4569" y2="30.1699">
			<stop  offset="0" style="stop-color:#94C640"/>
			<stop  offset="0.5112" style="stop-color:#24257A"/>
			<stop  offset="1" style="stop-color:#F09931"/>
		</linearGradient>
		<path style="fill:url(#SVGID_00000129926124706337641780000002792338355414699453_);" d="M211.46,52.86h-23.57V7.48h22.58v5.21
			h-16.92v14.53h15.68v5.19h-15.68v15.26h17.91V52.86z"/>
	</g>
</g>
<g>
	<g>
		<path class="st7" d="M45.11,36.91c-1.17,0.01-2.31,0.31-3.33,0.87l-7.56-5.45c0.27-0.72,0.41-1.48,0.42-2.25
			c0-0.24-0.05-0.47-0.07-0.7l6.98-4.1c1.82,1.64,4.56,1.81,6.57,0.41c2.01-1.4,2.74-4,1.75-6.21c-0.99-2.22-3.44-3.44-5.86-2.94
			c-2.42,0.5-4.15,2.59-4.14,5.01c0.01,0.23,0.03,0.47,0.07,0.7l-6.61,3.88c-0.95-1.3-2.34-2.23-3.92-2.64v-3.9
			c3-0.76,5.23-3.41,5.23-6.59c0-3.77-3.12-6.83-6.98-6.83c-3.85,0-6.98,3.06-6.98,6.83c0,3.17,2.23,5.82,5.23,6.59v3.9
			c-1.7,0.43-3.17,1.47-4.12,2.92l-6.46-3.8c0.47-2.12-0.48-4.3-2.37-5.44c-1.89-1.14-4.31-0.99-6.03,0.38
			c-1.73,1.37-2.38,3.65-1.64,5.69c0.74,2.05,2.72,3.41,4.94,3.41c1.19,0,2.34-0.41,3.26-1.15l7.23,4.25c0,0.11-0.03,0.2-0.03,0.31
			c0.01,0.77,0.15,1.53,0.42,2.25l-7.48,5.49c-1.04-0.59-2.21-0.9-3.41-0.91c-3.21-0.03-6.04,2.07-6.88,5.1
			c-0.84,3.03,0.53,6.24,3.32,7.79c2.79,1.55,6.3,1.07,8.54-1.19c2.24-2.25,2.64-5.71,0.97-8.39l6.88-5.05
			c0.82,0.71,1.8,1.23,2.86,1.5v7.39c-2.4,0.83-3.84,3.24-3.41,5.7C22.94,52.2,25.11,54,27.66,54c2.55,0,4.73-1.8,5.16-4.26
			c0.43-2.46-1.01-4.86-3.41-5.7v-7.39c1.06-0.27,2.05-0.78,2.87-1.5l6.92,4.99c-0.69,1.07-1.06,2.32-1.06,3.59
			c0,3.77,3.12,6.83,6.98,6.83c3.85,0,6.98-3.06,6.98-6.83C52.09,39.96,48.97,36.91,45.11,36.91 M24.18,13
			c0-1.89,1.56-3.41,3.49-3.41c1.93,0,3.49,1.53,3.49,3.41c0,1.89-1.56,3.41-3.49,3.41C25.74,16.41,24.18,14.89,24.18,13
			 M10.22,47.15c-1.41,0-2.68-0.83-3.22-2.11c-0.54-1.28-0.24-2.74,0.76-3.72c1-0.98,2.5-1.27,3.8-0.74
			c1.3,0.53,2.15,1.77,2.15,3.15C13.71,45.62,12.15,47.15,10.22,47.15 M27.67,33.49c-1.93,0-3.49-1.53-3.49-3.41
			c0-1.89,1.56-3.41,3.49-3.41c1.93,0,3.49,1.53,3.49,3.41C31.15,31.96,29.59,33.49,27.67,33.49 M45.11,47.15
			c-1.41,0-2.68-0.83-3.22-2.11c-0.54-1.28-0.24-2.74,0.76-3.72c1-0.98,2.5-1.27,3.8-0.74c1.3,0.53,2.15,1.77,2.15,3.15
			C48.6,45.62,47.04,47.15,45.11,47.15"/>
	</g>
</g>
</svg>
